<svg id="Layer_1" data-name="Layer 1" xmlns="http://www.w3.org/2000/svg" viewBox="0 0 400 400"><defs><style>.cls-1{fill:#FFFFFF;}.cls-2{fill:#4e008e;}.cls-3{fill:#f2a900;}</style></defs><title>[expargo]-logo</title><circle class="cls-1" cx="200" cy="200" r="200"/><path class="cls-2" d="M152.31,196.86H186.2v48.92a78.57,78.57,0,0,1-23.8,10.91,98.49,98.49,0,0,1-26.61,3.81q-18.52,0-33.23-7.69a57.51,57.51,0,0,1-23-21.49,62.91,62.91,0,0,1,0-62.64,57,57,0,0,1,23.3-21.49q15-7.68,33.8-7.69,17,0,30.5,5.71a57.17,57.17,0,0,1,22.39,16.61l-24.95,22q-10.92-12.72-26-12.73-12.9,0-20.5,7.77T110.5,200q0,13.06,7.52,21t20.08,7.93a36.57,36.57,0,0,0,14.21-2.81Z"/><path class="cls-2" d="M328,189.38a47.06,47.06,0,0,1-46.26-47.06c0-.25,0-.5,0-.75a77.75,77.75,0,0,0-18.21-2.06q-18.69,0-33.57,7.76a59.33,59.33,0,0,0,0,105.46q14.89,7.75,33.57,7.76t33.54-7.76A57.92,57.92,0,0,0,328.84,200,68,68,0,0,0,328,189.38Zm-42,25.91a25.43,25.43,0,0,1-9.33,10.08,26,26,0,0,1-26.27,0,25.33,25.33,0,0,1-9.35-10.08,35.51,35.51,0,0,1,0-30.58,25.33,25.33,0,0,1,9.35-10.08,26,26,0,0,1,26.27,0A25.43,25.43,0,0,1,286,184.71a35.24,35.24,0,0,1,0,30.58Z"/><circle class="cls-3" cx="328.84" cy="142.32" r="40"/><polygon class="cls-1" points="356.61 142.32 328.84 114.55 328.84 128.43 301.07 128.43 301.07 156.2 328.84 156.2 328.84 170.09 356.61 142.32"/></svg>