<svg id="Layer_1" data-name="Layer 1" xmlns="http://www.w3.org/2000/svg" viewBox="0 0 800 141.09"><defs><style>.cls-1{fill:#4e008e;}.cls-2{fill:#f2a900;}.cls-3{fill: #efebfc;}</style></defs><title>[expargo]-logo</title><path class="cls-1" d="M85.72,112.52v26.21H0V35.64H83.8V61.86H34.17V73.93H77.76V99H34.17v13.55Z"/><path class="cls-1" d="M163.62,138.73,145.8,111.2l-17.38,27.53H88.81l37.26-52L90.13,35.64h39l17.53,25.92,17.08-25.92h37.41L165.39,85.42l38,53.31Z"/><path class="cls-1" d="M282.18,40.36a35.63,35.63,0,0,1,22.09,34.16,35.65,35.65,0,0,1-22.09,34.17q-10.6,4.73-24.89,4.71H242.42v25.33H207.66V35.64h49.63Q271.58,35.64,282.18,40.36ZM265.69,83.43q3.53-3.17,3.53-8.91t-3.53-8.91q-3.54-3.16-10.61-3.16H242.42V86.6h12.66Q262.16,86.6,265.69,83.43Z"/><path class="cls-1" d="M380.71,120.77H341.54l-6.93,18H299.27L344.33,35.64H378.5l45.07,103.09H387.63Zm-9.57-25-10-25.92-10,25.92Z"/><path class="cls-1" d="M473.34,112.81h-9.42v25.92H429.16V35.64h49.63q14.29,0,24.89,4.72a35.63,35.63,0,0,1,22.09,34.16,36.47,36.47,0,0,1-5,19.29,35.27,35.27,0,0,1-14.44,13.11L528,138.73H490.87Zm13.85-47.2q-3.54-3.16-10.61-3.16H463.92V86.6h12.66q7.08,0,10.61-3.17t3.53-8.91Q490.72,68.78,487.19,65.61Z"/><path class="cls-2" d="M607.07,84.39h30.19V128a70,70,0,0,1-21.21,9.73,87.82,87.82,0,0,1-23.71,3.38,62.89,62.89,0,0,1-29.6-6.85A51.13,51.13,0,0,1,542.2,115.1a52.85,52.85,0,0,1-7.44-27.91,52.85,52.85,0,0,1,7.44-27.91A50.7,50.7,0,0,1,563,40.14a64.89,64.89,0,0,1,30.12-6.85,69.05,69.05,0,0,1,27.17,5.08,51.06,51.06,0,0,1,20,14.8L618,72.76q-9.72-11.34-23.12-11.35-11.49,0-18.27,6.93t-6.77,18.85q0,11.64,6.7,18.7T594.4,113a32.76,32.76,0,0,0,12.67-2.5Z"/><path class="cls-2" d="M763.58,77.57a41.93,41.93,0,0,1-41.16-41.93v-.52a69.73,69.73,0,0,0-16.24-1.83,63.6,63.6,0,0,0-29.89,6.92,51.59,51.59,0,0,0-28.28,47,51.65,51.65,0,0,0,28.28,47,68.06,68.06,0,0,0,59.8,0,51.67,51.67,0,0,0,28.27-47A57,57,0,0,0,763.58,77.57Zm-37.36,23.24a22.79,22.79,0,0,1-8.33,9,23.26,23.26,0,0,1-23.41,0,22.79,22.79,0,0,1-8.33-9,28.61,28.61,0,0,1-3.09-13.62,28.63,28.63,0,0,1,3.09-13.62,22.72,22.72,0,0,1,8.33-9,23.19,23.19,0,0,1,23.41,0,22.72,22.72,0,0,1,8.33,9,28.63,28.63,0,0,1,3.09,13.62A28.61,28.61,0,0,1,726.22,100.81Z"/><circle class="cls-1" cx="764.36" cy="35.64" r="35.64" transform="translate(554.06 771.36) rotate(-76.72)"/><polygon class="cls-3" points="789.1 35.64 764.36 10.9 764.36 23.27 739.62 23.27 739.62 48.01 764.36 48.01 764.36 60.38 789.1 35.64"/></svg>