<?xml version="1.0" encoding="utf-8"?>
<!-- Svg Vector Icons : http://www.onlinewebfonts.com/icon -->
<!DOCTYPE svg PUBLIC "-//W3C//DTD SVG 1.1//EN" "http://www.w3.org/Graphics/SVG/1.1/DTD/svg11.dtd">
<svg version="1.1" xmlns="http://www.w3.org/2000/svg" xmlns:xlink="http://www.w3.org/1999/xlink" x="0px" y="0px" viewBox="0 0 1000 1000" enable-background="new 0 0 1000 1000" xml:space="preserve">
<metadata> Svg Vector Icons : http://www.onlinewebfonts.com/icon </metadata>
<g><g transform="translate(0.000000,511.000000) scale(0.100000,-0.100000)"><path d="M5005.1,3964.7l-332.4-144.8v-236.6c0-130.5-6.1-269.2-12.2-310l-12.2-73.4l-238.6-46.9c-832.1-161.1-1601-575.2-2225.1-1203.3C1019.8,781,293.8-1172.9,114.3-3620.3L100-3797.8l79.6-12.3c42.8-6.1,263.1-16.3,489.5-24.5l414-14.3v69.3c2,199.9,44.9,921.9,73.4,1170.7c248.8,2321,1240,4091.3,2724.8,4872.5c197.8,106.1,538.4,236.6,685.3,263.1l65.3,14.3v-150.9c0-132.6-118.3-4242.2-155-5343.6c-8.2-248.8-6.1-422.2,4.1-416.1c432.4,242.7,942.3,538.4,962.7,556.8c22.4,20.4,20.4,503.8-8.2,2680c-18.3,1460.3-28.5,2659.6-22.4,2665.7c12.2,14.3,361-63.2,524.2-116.3c73.4-24.5,242.7-95.9,377.3-161.1c1439.9-693.4,2294.5-2529,2539.2-5451.7c55.1-642.5,55.1-642.5,97.9-654.7c18.4-4.1,240.7-16.3,491.5-24.5l456.8-14.3l-14.3,293.7c-51,1062.6-206,1968.2-485.4,2832.9c-713.8,2214.9-2202.7,3767-3818,3985.3l-185.6,24.5l-6.1,432.4c-4.1,326.3-10.2,432.4-30.6,430.3C5347.8,4107.5,5186.6,4042.2,5005.1,3964.7z"/></g></g>
</svg>